<svg width="91" height="88" viewBox="0 0 91 88" fill="none" xmlns="http://www.w3.org/2000/svg">
<path d="M77.5185 27.3778V16.2963C77.5185 12.711 74.4851 9.77778 70.7778 9.77778H56.9593L45.5001 0L34.0408 9.77778H20.2222C16.5147 9.77778 13.4815 12.711 13.4815 16.2963V27.3778L3.37036 35.8519V81.4815C3.37036 85.0666 6.40361 88 10.1111 88H80.8889C84.5962 88 87.6296 85.0666 87.6296 81.4815V35.8519L77.5185 27.3778ZM77.5185 31.6149L82.5741 35.8519L77.5185 40.0888V31.6149ZM45.5001 4.23695L51.9039 9.77778H38.7593L45.5001 4.23695ZM16.8518 16.2963C16.8518 14.3407 18.2 13.037 20.2222 13.037H70.7778C72.4629 13.037 74.1481 14.6666 74.1481 16.2963V42.6962L51.9037 61.9259H52.2406H40.7814H46.5109H38.7592L16.8518 43.0222V16.2963ZM13.4815 31.6149V40.4148L8.42583 35.8519L13.4815 31.6149ZM7.75175 83.763C7.07768 83.1112 6.74073 82.4593 6.74073 81.4815V60.2962V39.1111L33.7037 61.9259L7.75175 83.763ZM11.7964 84.7407L35.3888 65.1852H55.611L79.2036 84.7407H11.7964ZM84.2592 60.2962V81.4813C84.2592 82.459 83.9223 83.1109 83.2482 83.7629L57.2963 61.9259L84.2592 39.1111V60.2962Z" fill="white"/>
</svg>
